Coordinates
version=1
nRows=11
nColumns=36
inDegrees=yes

Units are S.I. units (second, meters, Newtons, ...)
If the header above contains a line with 'inDegrees', this indicates whether rotational values are in degrees (yes) or radians (no).

endheader
time	pelvis_tilt	pelvis_list	pelvis_rotation	pelvis_tx	pelvis_ty	pelvis_tz	hip_flexion_r	hip_adduction_r	hip_rotation_r	knee_angle_r	knee_angle_r_beta	ankle_angle_r	subtalar_angle_r	mtp_angle_r	hip_flexion_l	hip_adduction_l	hip_rotation_l	knee_angle_l	knee_angle_l_beta	ankle_angle_l	subtalar_angle_l	mtp_angle_l	lumbar_extension	lumbar_bending	lumbar_rotation	arm_flex_r	arm_add_r	arm_rot_r	elbow_flex_r	pro_sup_r	arm_flex_l	arm_add_l	arm_rot_l	elbow_flex_l	pro_sup_l
      4.65000000	     -6.72457668	      0.91539865	     -1.02584488	      0.51834340	      0.82174551	     -0.15090471	     39.73745076	      9.16790415	      2.65353235	     60.72697010	      1.05988557	     29.05344912	    -12.28518513	     -7.49999987	     53.69179733	     -0.54075387	     -0.27644742	     25.47145345	      0.44456073	     -4.71768611	    -12.65529684	     -7.49999987	    -33.76263855	      4.07312892	     -2.49202013	     52.88940697	     10.26140693	     68.01166003	    120.04169337	     99.00222886	     41.82375077	      9.21292262	     72.07440181	    127.13766767	     97.99767632
      4.66666670	     -6.76321293	      1.04522576	     -1.18804251	      0.51751791	      0.81494174	     -0.15132179	     40.85062373	      8.80534884	      2.10659790	     62.58406798	      1.09229805	     29.83136966	    -11.15997263	     -7.49999987	     54.32578418	     -0.61384800	     -0.49743747	     25.89633780	      0.45197636	     -5.25417785	    -12.78652268	     -7.49999987	    -34.80250548	      3.98225587	     -2.38361868	     53.19362589	     10.04246852	     67.79036922	    120.42359115	     98.90645713	     41.92781427	      9.03862838	     73.06004791	    127.45871366	     98.08216266
      4.68333330	     -6.82602895	      1.21736973	     -1.30826696	      0.51762749	      0.81270407	     -0.15127794	     41.87993812	      8.36684327	      1.55329444	     64.42371624	      1.12440596	     30.27076007	    -10.48078537	     -7.49999987	     54.82691545	     -0.75362887	     -0.81605164	     26.33704739	      0.45966819	     -6.00349858	    -13.04764723	     -7.49999987	    -35.80291221	      3.75804735	     -2.47661812	     53.40614082	     10.05037341	     67.73833390	    121.11506794	     98.61405688	     42.06228613	      8.87954117	     73.87818807	    127.54856122	     97.96737056
      4.70000000	     -6.81368683	      1.37608729	     -1.68698962	      0.51329894	      0.80955743	     -0.15253943	     42.86541495	      8.06692075	      1.28155081	     65.87859987	      1.14979847	     30.39257302	     -9.69065156	     -7.49999987	     55.20879459	     -0.98850686	     -1.29820033	     26.13976248	      0.45622492	     -6.62606605	    -13.19924446	     -7.49999987	    -36.85431439	      3.51208376	     -2.22143729	     54.30021684	      9.93140632	     67.24152561	    121.53288837	     98.36647176	     42.11159474	      8.76841001	     74.74746198	    128.10725648	     97.97207193
      4.71666670	     -6.79691188	      1.53106146	     -2.10574661	      0.51363942	      0.80704611	     -0.15241681	     43.54160248	      7.82913667	      1.12861643	     67.03052363	      1.16990334	     30.26527738	     -8.75129122	     -7.49999987	     55.26309239	     -1.23459042	     -1.65526611	     25.57590805	      0.44638380	     -7.50930878	    -13.11922933	     -7.49999987	    -37.78120744	      3.26512657	     -2.12978097	     54.85331695	      9.85458944	     67.15124560	    121.80925708	     97.96745273	     42.51475943	      9.01444379	     74.09696376	    127.74437902	     97.70119989
      4.73333330	     -6.71168767	      1.71363834	     -2.58360784	      0.51367760	      0.80439206	     -0.15152623	     44.02776835	      7.67460578	      1.06440130	     67.96450826	      1.18620444	     30.33207161	     -7.78657068	     -7.49999987	     55.14245690	     -1.48645585	     -1.96117521	     25.07583222	      0.43765583	     -7.88677558	    -13.02960917	     -7.49999987	    -38.82173433	      2.92357433	     -1.84776591	     55.42490860	     10.07308753	     66.99395474	    121.69562369	     99.96206761	     42.86306064	      9.21551495	     73.08549603	    127.29177990	    101.09164827
      4.75000000	     -6.67355877	      1.81824635	     -2.83259772	      0.51375802	      0.80176511	     -0.15182084	     44.48556585	      7.62966943	      1.12072631	     68.74574548	      1.19983961	     30.52428117	     -7.50836230	     -7.49999987	     55.16539894	     -1.55109352	     -2.26817194	     24.95079614	      0.43547354	     -7.71434866	    -12.86402029	     -7.49999987	    -39.52187818	      2.78365547	     -1.41904270	     55.79293175	      9.98697940	     67.19461542	    121.59863297	     98.95027457	     43.89224559	      8.86321104	     73.47377848	    127.09136800	    100.05269821
      4.76666670	     -6.86064183	      1.96210439	     -2.83762529	      0.51314838	      0.79435931	     -0.15118518	     45.23695287	      7.57208227	      1.15566012	     69.69412044	      1.21639187	     31.22541818	     -7.23878461	     -7.49999987	     55.73924397	     -1.45095073	     -2.39229581	     25.16327004	      0.43918191	     -7.06337385	    -12.43984735	     -7.49999987	    -39.85813902	      2.78695855	     -1.16443654	     56.23760577	      9.88117660	     67.47842221	    121.46036766	     96.86135344	     45.06856821	      8.53474313	     74.16827508	    127.14432641	     97.84106016
      4.78333330	     -7.14426604	      1.97912998	     -2.86645435	      0.51330380	      0.79409048	     -0.15138669	     45.82655802	      7.69169263	      1.20570402	     70.21391816	      1.22546405	     31.40027519	     -7.28798546	     -7.49999987	     56.17301899	     -1.41215381	     -2.20237965	     25.06515249	      0.43746944	     -6.62163985	    -12.13452242	     -7.49999987	    -40.35779794	      2.74659245	     -1.29012664	     56.71690656	      9.76680583	     67.35664111	    121.18932638	    100.39182808	     44.91536069	      8.32958504	     74.10233893	    127.45435641	    101.80195624
      4.80000000	     -7.37796723	      1.89394633	     -3.07664334	      0.51342978	      0.79114623	     -0.15100693	     46.26696224	      8.01115924	      1.21994556	     70.66569955	      1.23334913	     31.53036897	     -7.27068615	     -7.49999987	     56.26826554	     -1.66361674	     -1.91816883	     24.59915365	      0.42933622	     -5.96182413	    -11.63442447	     -7.49999987	    -40.76031863	      2.61136806	     -1.29192409	     56.75610332	      9.50208389	     67.33528246	    121.30513073	     98.61631080	     45.23672041	      8.18394461	     72.84874457	    127.22175051	     99.85383018
      4.81666670	     -7.53914413	      1.86705889	     -3.33948867	      0.51370329	      0.78825496	     -0.15101478	     46.59146005	      8.26026751	      1.25629610	     71.11577302	      1.24120439	     31.68626773	     -7.23317567	     -7.49999987	     56.36468636	     -1.90646589	     -1.88184186	     24.43417891	      0.42645687	     -5.42967312	    -11.53032998	     -7.49999987	    -41.23457159	      2.37290769	     -1.31013704	     56.87348764	      9.43695014	     67.59853667	    121.46117470	     97.32935707	     45.35634201	      8.04845560	     71.36333379	    126.91607010	     98.35204079
